<?xml version="1.0" encoding="utf-8"?>
<!-- Generator: Adobe Illustrator 22.1.0, SVG Export Plug-In . SVG Version: 6.00 Build 0)  -->
<svg version="1.1" id="Layer_1" xmlns="http://www.w3.org/2000/svg" xmlns:xlink="http://www.w3.org/1999/xlink" x="0px" y="0px"
	 viewBox="0 0 800 785" style="enable-background:new 0 0 800 785;" xml:space="preserve">
<style type="text/css">
	.st0{fill:#FFFFFF;}
</style>
<g id="Layer_x0020_1">
	<path class="st0" d="M399.7,0.1c41.6,0,78.7,20.8,105.1,54.5c23,29.8,38.2,69.1,41,112.4H800l-68.6,617.8H68L0,167.1h24.7h229.4
		c2.8-43.3,18-82.6,41-112.4C321.6,20.9,358.7,0.1,399.7,0.1z M501.5,167.1c-2.2-33.2-14.1-63-31.5-84.9
		c-18-23.6-42.7-38.2-70.3-38.2c-27,0-51.7,14.6-70.3,38.2c-17.4,21.9-28.7,51.7-30.9,84.9H501.5z M399.7,211.5H49.5l58.5,529.6
		h584.1l58.5-529.6H399.7z"/>
</g>
</svg>
